<?xml version="1.0" encoding="UTF-8"?>
<svg xmlns="http://www.w3.org/2000/svg" version="1.1" viewBox="0 0 288 560">
  <defs>
    <style>
      .cls-1 {
        fill: #fff;
      }

      .cls-2 {
        display: none;
      }
    </style>
  </defs>
  <!-- Generator: Adobe Illustrator 28.7.10, SVG Export Plug-In . SVG Version: 1.2.0 Build 236)  -->
  <g>
    <g id="Layer_1" class="cls-2">
      <g>
        <path d="M110.67,137.3c11.71-1.03,21.62,3.6,33.19,3.6,15.45.01,26.04-7.13,42.2-1.6,22.46,7.69,27.5,30.59,37.85,48.12,6.18,10.46,14.04,12.73,22.83,19.76,25.28,20.21,28.3,58.17,12.69,84.89-6.77,11.59-15.67,18.28-11.23,32.92,3.76,12.41,9.9,22.26,12.28,35.71,8.99,50.9-35.97,87.11-85.84,65.97-8.43-3.57-22.38-13.19-31.03-13.09-9.56.11-25.8,11.44-35.8,15.07-46.66,16.93-87.15-18-81.18-64.34,1.94-15.03,9.11-26.23,12.87-40.11,4.07-15.03-5.81-22.45-12.51-34.56-15.05-27.21-9.64-65.7,16.83-84.4,11.85-8.37,16.7-10.4,23.31-24,9.14-18.78,18.4-41.73,43.53-43.94ZM127.69,151.17c-9.88-2.15-17.28-4.27-26.4,1.37-19.03,11.76-20.17,36.49-35.73,51.48-9.7,9.35-20.52,11.52-27.63,24.27-8.19,14.68-9.76,33.54-3.75,49.2,7.08,18.43,22.87,25.93,16.97,48.81-2.88,11.14-8.97,21.31-11.64,32.93-9.95,43.32,26.3,75.55,69.43,56.38,7.31-3.25,13.74-7.93,21.09-10.99,20.71-8.6,31.23,3.63,48.42,11.07,43.56,18.86,79.92-12.76,69.88-56.56-2.75-11.99-9.18-22.34-12.22-33.68-5.61-20.9,11.11-30.69,17.65-48.04,7.69-20.39,3.13-48.94-15.81-62.24-7.32-5.14-13.13-7.85-19.13-14.98-11.9-14.15-14.18-35.06-30.1-46.2-14.36-10.05-23.68-2.11-38.39-.6-8.44.86-14.76-.51-22.64-2.23Z"/>
        <path class="cls-1" d="M127.69,151.17c7.88,1.72,14.2,3.09,22.64,2.23,14.71-1.5,24.03-9.45,38.39.6,15.92,11.14,18.21,32.05,30.1,46.2,5.99,7.13,11.81,9.84,19.13,14.98,18.93,13.3,23.49,41.85,15.81,62.24-6.54,17.34-23.26,27.14-17.65,48.04,3.04,11.33,9.48,21.69,12.22,33.68,10.04,43.81-26.32,75.43-69.88,56.56-17.18-7.44-27.7-19.68-48.42-11.07-7.35,3.05-13.78,7.74-21.09,10.99-43.13,19.16-79.38-13.07-69.43-56.38,2.67-11.62,8.76-21.79,11.64-32.93,5.9-22.87-9.89-30.38-16.97-48.81-6.02-15.66-4.45-34.52,3.75-49.2,7.12-12.75,17.93-14.92,27.63-24.27,15.56-14.99,16.7-39.72,35.73-51.48,9.12-5.63,16.52-3.52,26.4-1.37ZM108.5,163.17c-9.9,1.31-13.64,14.55-14.54,22.55-1.29,11.54-.62,41.2,17.45,39.87,11.57-.85,15.05-17.11,15.55-26.01.62-10.93-1.47-38.66-18.47-36.41ZM181.5,222.35c10.94-9.85,10.73-41.41,2.91-52.96-6.09-9-16.9-7.72-22.16,1.28-6.96,11.91-7.57,43.32,4.49,52.4,4.52,3.41,10.59,3.03,14.76-.72ZM56.57,225.4c-12.72,1.3-15.56,22.69-15.1,32.22.42,8.54,4.04,24.98,15.56,24.98,12.73,0,15.76-19.21,15.84-28.39s-2.82-30.2-16.31-28.82ZM228.6,225.39c-11.59,1.62-13.87,23.54-13.47,32.23s3.94,25.86,16.37,24.69c10.43-.98,14.29-16.2,14.76-24.43.57-10.12-2.31-34.63-17.66-32.49ZM138.25,254.41c-25.38,3.08-41.51,28.39-53,47.86-8.17,13.85-15.57,28.91-21.91,43.66-6.29,14.62-14.45,35.94-2.38,49.71s33.63,10.77,48.12,2.34c6.75-3.93,12.74-9.04,20.24-11.81,31.94-11.82,43.1,17.26,71.08,19.02,13.47.85,27.17-4.97,31.16-18.24,5.36-17.8-9.43-45.62-17.29-61.83-9.3-19.17-24.82-48.69-42.6-61.31-8.65-6.14-22.63-10.7-33.42-9.39Z"/>
        <path d="M138.25,254.41c10.79-1.31,24.77,3.25,33.42,9.39,17.78,12.62,33.3,42.13,42.6,61.31,7.86,16.21,22.64,44.03,17.29,61.83-3.99,13.27-17.69,19.09-31.16,18.24-27.97-1.76-39.13-30.84-71.08-19.02-7.5,2.77-13.49,7.88-20.24,11.81-14.49,8.44-36,11.49-48.12-2.34s-3.91-35.09,2.38-49.71c6.34-14.74,13.74-29.8,21.91-43.66,11.49-19.47,27.62-44.78,53-47.86Z"/>
        <path d="M108.5,163.17c17-2.25,19.09,25.48,18.47,36.41-.5,8.9-3.99,25.16-15.55,26.01-18.07,1.33-18.74-28.33-17.45-39.87.89-8,4.64-21.24,14.54-22.55Z"/>
        <path d="M181.5,222.35c-4.17,3.76-10.24,4.13-14.76.72-12.06-9.08-11.45-40.48-4.49-52.4,5.26-9,16.07-10.28,22.16-1.28,7.82,11.55,8.02,43.11-2.91,52.96Z"/>
        <path d="M56.57,225.4c13.49-1.38,16.39,19.63,16.31,28.82s-3.11,28.39-15.84,28.39c-11.52,0-15.15-16.44-15.56-24.98-.47-9.54,2.37-30.92,15.1-32.22Z"/>
        <path d="M228.6,225.39c15.34-2.14,18.22,22.37,17.66,32.49-.46,8.23-4.33,23.45-14.76,24.43-12.44,1.17-15.97-15.81-16.37-24.69s1.88-30.61,13.47-32.23Z"/>
      </g>
    </g>
    <g id="Layer_2">
      <g>
        <path d="M199.31,402.73c-4.78-.48-7.67-5.7-10.23-9.38-6.59-9.47-8.09-14.72-11.61-25.43-2.81-8.56-4.96-12.2-10.63-19.12-7.33-8.94-16.2-16.01-23.66-24.74-1.23,5.08-3.39,9.54-6.76,13.52-6.8,8.03-12.57,13.1-17.86,22.7-7.44,13.5-14.31,31.13-27.63,40.24-4,2.73-7.95,1.86-12.58,1.05-11.35-1.97-18.74-9.55-21.25-20.66,0-.92,6.16-6.72,7.27-7.75,4.03-3.73,8.46-7.04,12.42-10.85,9.15-8.81,22.03-24.42,25.97-36.49,3.58-10.98,2.41-23.78,5.82-34.2,1.12-3.42,4.68-7.6,6.49-11.09,2.27-4.38,3.68-9.19,5.94-13.53,2.73-5.25,7.4-12.4,11.01-17.11,1.4-1.83,2.89-3.46,5.35-2.08.86-2.07,3.36-3.32,5.28-1.62.36.32,1.48,2.2,1.48,2.57v4.46c1.35-1.33,2.58-1.51,3.79.13,1.71,2.32,1.21,6.99.27,9.6.72-.08,1.14-.48,1.89-.13,2.63,1.21.8,10.09.55,12.56,2.11.37,4.38,1.12,6.08,2.44l-.41-1.62c1.36-.12,2.66.61,3.96.79,3.02.43,3.93.28,7.04,1.59,9.11,3.83,17.01,9.98,20.57,19.45,2.37,6.29,2.64,12.92,5.16,19.17,7.33,18.16,23.07,29.91,32.28,46.95,1.62,3,5.48,10.34,5.9,13.43v2.16c-.75,3.16-1.59,6.31-3.1,9.2-3.49,6.64-10.09,10.71-17.23,12.52-2.12.54-4.32.75-6.44,1.26-1.66-.12-3.51.16-5.14,0ZM126.29,290c1.62-1.42,2.57-4.37,5-4.6,1.09-.11,2.61.69,3.06-.18.79-4.76,1.85-9.45,3.23-14.07,1.57-5.27,6.53-17.09,5.18-22.07-.37-1.36-1.27-2.96-2.94-2.19-.33.15-1.66,1.62-1.78,2.01-.33,1.08-.03,2.63-.2,3.86-.98,7.5-5.16,15.01-7.57,22.17-1.65,4.91-3.04,9.97-3.98,15.08ZM136.26,248.67c-.98-.61-2.62,1.3-3.21,2-2.75,3.3-6.26,9.07-8.5,12.86-3.74,6.33-5.71,12.93-9.21,19.18-3.4,6.08-5.08,6.73-6.55,14.27-1.69,8.66-1.73,17.78-3.95,26.34-3.66,14.17-18.28,31.75-28.86,41.72-4.07,3.84-8.67,7.19-12.45,11.34-.69.76-4.12,4.86-4.27,5.49-.28,1.16,2.23,6.2,2.98,7.45,4.82,7.99,16.69,12.57,25.71,10.12,4.26-1.16,12.52-10.74,15.34-14.4,7.95-10.3,11.66-22.68,19.16-33.3,6.81-9.65,17.97-17.23,18.71-29.93-2.11-4.08-8.25-11.05-6.35-15.83.2-.49.84-1,.86-1.21.05-.45-.84-2.02-.45-2.84.92-.17,1.78.38,2.61.45.22.02,1.24-.04,1.18-.44l-3.89-.75c-2.75,3.51-3.92,8.1-6.06,12.03,1.11,5.15,2.24,10.79,1.18,16.04-.29,1.45-.97,4.18-2.58,4.58,2.52-6.25,2.1-14.14-.17-20.41,1.72-3,2.85-6.28,4.3-9.39.65-1.38,1.64-2.7,2.32-4.17,1.61-3.47,3.34-8.15,1.25-11.72-.37-.17-2.49,6.32-3.82,7.26-1.63,1.16-4.28-.39-5.77-1.21l-.42.13c-1.44,2.05-3.23,3.87-4.57,6-2.61,4.14-3.54,9.34-7.73,12.41.99-2.14,2.29-4.14,3.35-6.25.91-1.81,1.54-3.76,2.56-5.56.66-1.16,4.58-6.09,4.61-6.49.1-1.15-4.04-1.22-4.84-1.3,1.36-1.49,3.44-.99,5.13-.41.46-2,.88-4.03,1.43-6.01.73-2.63,3.04-8.38,3.15-10.66.07-1.48-.9-2.74-1.06-4.15l1.62.54c1.87-3.91,3.87-7.74,5.35-11.83,1.19-3.31,2.57-7.21,2.23-10.75-.02-.25-.17-1.09-.3-1.18ZM146.53,253.54c-1.21-.23-1.78,1.04-2.17,1.94-1.67,3.8-3.36,10.14-4.62,14.31s-3.69,12.23-3.7,16.6c0,.69.74,1.42.99,2.2,1.31,3.93-.11,7.74-1.55,11.41,1.17-.03,2.47.26,3.58.62,1.67.55,2.29,1.18,4.41,1.28.41.02.78.18.67-.4l-3.11-5.27c.05.25-.82,4.02-1.48,3.24.01-1.15.47-2.23.55-3.37.18-2.54-.58-5.68.12-7.99.16-.52.82-1.2.85-1.48.05-.54-.87-2.25-.93-2.98l1.88-.55c1.01-3.94,1.39-8.01,2.32-11.96,1.34-5.69,5.33-12.02,2.21-17.59ZM149.27,275.4c.28-1.65,1.95-10.93.13-11.36-1.06-.25-2.89,5.35-3.18,6.28-1.37,4.43-1.72,9.06-2.92,13.55l1.64.99c-.65-1.75-.74-3.08-.12-4.86.23-.67,1.16-1.87,1.18-2.29.05-.83-.89-2.32-.51-3.39l3.78,1.08ZM149,277.29c.38-.53-2.24-1.88-2.7-2.16l1.08,2.97,1.62-.82ZM169.56,292.7c-5.35-6.58-10.2-14.22-19.19-15.95-.24,1.25-2.56,3.86-3.66,2.44-1.34,1.46-.87,3.58-.95,5.4,6.35.05,11.97,3.86,16.5,7.97,6.61,6,10.58,13.43,15.14,20.95-.28.27-1.01-.59-1.22-.8-3.62-3.76-5.98-9.25-9.34-13.38-3.66-4.5-14.21-13.36-20.14-13.4-.87,0,.06.62-.26,1.34-.37.84-2.57,2.09-3.48,1.87-.62-.15-1.41-2.77-1.78.2-.42,3.38,1.6,7.99,3.75,10.53,2.64,3.11,6.46,4.44,8.77,7.72,1.52,2.15,2.42,4.81,3.73,7.09l4.54,6.14c-4.78-1.82-6.01-6.92-8.24-10.82-2.5-4.37-8.3-7.74-13.39-6.48-.1.08,1.18,1.37,1.04,2.23-.09.56-1.63,2.63-2.25,2.63-1.07,0-2.56-2.38-3.38-2.98-.84,4.79,2.94,9.44,5.62,13.17,9.35,13.03,23.08,22.89,32.2,35.67,5.3,7.43,5.98,17.72,9.82,26.14,2.46,5.39,8.77,14.61,13.36,18.28.58.46,1.45,1.23,2.17,1.34,9.77,1.56,23.04-3.56,27.49-12.78,1.07-2.21,2.71-7.69,2.66-10.06-.02-.89-2.4-6.36-2.94-7.61-9.3-21.5-29.64-34.46-35.94-57.07-4.43-15.88-5.9-24.23-22.07-31.74-1.2-.56-5.52-2.49-6.55-2.4-.51.05-.89,1.03-1.48,1.23,3.84,3.75,7.28,8.19,9.46,13.11ZM140.89,284.05l2.7,3.94,1.62-1.1c0-.47-4.13-3.01-4.32-2.84ZM134.13,286.75c-1.74-.27-2.67-.59-4.19.54-.81.6-4.03,4.87-3.53,5.67.36.6,3.51,1.85,4.21,1.5.8-.4,3.94-7.29,3.52-7.71ZM135.75,302.43c-.31.38,2.3,3.71,2.83,4.07.61.42,1.33-.22,1.47-.75.33-1.24-3.51-2.52-4.3-3.32Z"/>
        <path class="cls-1" d="M169.56,292.7c-2.18-4.92-5.62-9.36-9.46-13.11.59-.19.96-1.18,1.48-1.23,1.03-.1,5.35,1.84,6.55,2.4,16.18,7.5,17.65,15.86,22.07,31.74,6.31,22.61,26.64,35.57,35.94,57.07.54,1.24,2.94,5.01,2.94,7.61,0,2.37-1.59,7.85-2.66,10.06-4.45,9.21-17.72,14.34-27.49,12.78-.72-.11-1.6-.88-2.17-1.34-4.58-3.67-10.9-12.88-13.36-18.28-3.84-8.42-4.52-18.71-9.82-26.14-9.12-12.78-22.85-22.64-32.2-35.67-2.68-3.73-6.45-8.38-5.62-13.17.82.6,2.31,2.97,3.38,2.98.62,0,2.16-2.07,2.25-2.63.14-.87-1.14-2.16-1.04-2.23,5.1-1.26,10.9,2.11,13.39,6.48,2.23,3.9,3.46,9,8.24,10.82l-4.54-6.14c-1.31-2.28-2.21-4.94-3.73-7.09-2.32-3.29-6.14-4.61-8.77-7.72-2.15-2.54-4.18-7.15-3.75-10.53.37-2.97,1.16-.35,1.78-.2.91.23,3.11-1.02,3.48-1.87.32-.72-.61-1.35.26-1.34,5.93.04,16.48,8.9,20.14,13.4,3.36,4.12,5.71,9.62,9.34,13.38.21.22.94,1.08,1.22.8-4.57-7.52-8.53-14.95-15.14-20.95-4.53-4.11-10.15-7.92-16.5-7.97.07-1.82-.4-3.94.95-5.4,1.1,1.42,3.43-1.19,3.66-2.44,9,1.73,13.84,9.37,19.19,15.95Z"/>
        <path class="cls-1" d="M136.26,248.67c.13.08.28.92.3,1.18.33,3.54-1.04,7.44-2.23,10.75-1.47,4.09-3.48,7.92-5.35,11.83l-1.62-.54c.16,1.41,1.14,2.68,1.06,4.15-.11,2.28-2.42,8.02-3.15,10.66-.55,1.98-.97,4.01-1.43,6.01-1.69-.58-3.77-1.08-5.13.41.8.09,4.94.15,4.84,1.3-.03.4-3.96,5.33-4.61,6.49-1.02,1.8-1.65,3.74-2.56,5.56-1.06,2.11-2.36,4.11-3.35,6.25,4.19-3.07,5.12-8.27,7.73-12.41,1.34-2.12,3.13-3.95,4.57-6l.42-.13c1.49.82,4.14,2.37,5.77,1.21,1.33-.94,3.45-7.44,3.82-7.26,2.09,3.57.36,8.25-1.25,11.72-.68,1.46-1.68,2.78-2.32,4.17-1.45,3.11-2.58,6.4-4.3,9.39,2.27,6.27,2.69,14.16.17,20.41,1.61-.4,2.29-3.13,2.58-4.58,1.06-5.25-.07-10.89-1.18-16.04,2.15-3.93,3.31-8.52,6.06-12.03l3.89.75c.06.41-.96.46-1.18.44-.83-.07-1.69-.62-2.61-.45-.39.82.5,2.4.45,2.84-.02.21-.66.72-.86,1.21-1.9,4.78,4.24,11.75,6.35,15.83-.74,12.7-11.9,20.28-18.71,29.93-7.5,10.62-11.21,23-19.16,33.3-2.83,3.66-11.09,13.24-15.34,14.4-9.02,2.46-20.89-2.13-25.71-10.12-.75-1.24-3.26-6.28-2.98-7.45.15-.62,3.58-4.73,4.27-5.49,3.78-4.16,8.38-7.51,12.45-11.34,10.58-9.97,25.2-27.54,28.86-41.72,2.21-8.56,2.25-17.68,3.95-26.34,1.47-7.54,3.15-8.19,6.55-14.27,3.5-6.25,5.47-12.85,9.21-19.18,2.24-3.79,5.75-9.56,8.5-12.86.58-.7,2.23-2.61,3.21-2ZM126.28,303.24c-.96-1.34-2.76-1.93-4.33-2.16,1.1,1.58,2.28,2.52,4.33,2.16Z"/>
        <path class="cls-1" d="M126.29,290c.94-5.1,2.33-10.16,3.98-15.08,2.41-7.16,6.6-14.67,7.57-22.17.16-1.23-.14-2.78.2-3.86.12-.39,1.45-1.85,1.78-2.01,1.67-.77,2.57.83,2.94,2.19,1.35,4.97-3.61,16.8-5.18,22.07-1.37,4.62-2.44,9.31-3.23,14.07-.45.87-1.97.08-3.06.18-2.42.24-3.38,3.18-5,4.6Z"/>
        <path class="cls-1" d="M146.53,253.54c3.13,5.56-.87,11.9-2.21,17.59-.93,3.95-1.3,8.02-2.32,11.96l-1.88.55c.06.73.98,2.44.93,2.98-.03.28-.69.97-.85,1.48-.7,2.31.06,5.45-.12,7.99-.08,1.14-.54,2.22-.55,3.37.66.78,1.53-3,1.48-3.24l3.11,5.27c.11.58-.26.42-.67.4-2.12-.09-2.74-.73-4.41-1.28-1.1-.36-2.4-.65-3.58-.62,1.43-3.67,2.86-7.48,1.55-11.41-.26-.77-.99-1.51-.99-2.2,0-4.38,2.39-12.24,3.7-16.6s2.94-10.51,4.62-14.31c.39-.89.96-2.17,2.17-1.94Z"/>
        <path class="cls-1" d="M149.27,275.4l-3.78-1.08c-.37,1.07.56,2.56.51,3.39-.02.42-.95,1.62-1.18,2.29-.61,1.78-.53,3.11.12,4.86l-1.64-.99c1.2-4.49,1.55-9.12,2.92-13.55.29-.94,2.11-6.53,3.18-6.28,1.82.43.15,9.71-.13,11.36Z"/>
        <path class="cls-1" d="M134.13,286.75c.42.43-2.72,7.32-3.52,7.71-.7.34-3.84-.9-4.21-1.5-.49-.81,2.72-5.07,3.53-5.67,1.52-1.13,2.45-.82,4.19-.54Z"/>
        <path class="cls-1" d="M135.75,302.43c.78.8,4.62,2.08,4.3,3.32-.14.53-.85,1.17-1.47.75-.53-.36-3.14-3.69-2.83-4.07Z"/>
        <path class="cls-1" d="M140.89,284.05c.16-.14,3.01,1.57,4,2.43.21.18.2.51-.02.68l-1.06.84c-.12.1-.3.07-.39-.06l-2.53-3.89Z"/>
        <path class="cls-1" d="M148.82,277.38l-1.13.57c-.17.08-.37,0-.43-.17l-.96-2.64c.38.23,2.24,1.19,2.65,1.82.1.15.03.35-.13.43Z"/>
        <path d="M126.28,303.24c-2.05.36-3.22-.58-4.33-2.16,1.57.23,3.36.82,4.33,2.16Z"/>
      </g>
      <path class="cls-1" d="M160.13,278.31l-.97.81c-.15.12-.37.09-.48-.07l-1.37-1.96c.46.13,3.47.53,2.83,1.22Z"/>
    </g>
    <g id="Layer_4">
      <g>
        <path d="M261.97,257.02c.13,7.48-1.45,15.52-4.61,23.28-2.43,5.94-6.02,11.19-9.47,16.55-2.19,3.41-4.64,6.65-6.07,10.54-2.08,5.67-2.33,11.33-.53,17.06.9,2.85,1.93,5.65,3,8.44,2.28,5.92,4.81,11.75,6.89,17.74,2.77,7.97,3.85,16.24,3.52,24.68-.41,10.47-3.23,20.27-9.13,28.9-4.53,6.62-10.21,12.24-17.33,16.25-5.65,3.19-11.64,5.33-18.03,6.28-4.67.7-9.37.65-14.09.19-8.59-.84-16.41-3.98-24-7.82-5.51-2.79-10.92-5.77-16.47-8.49-7.52-3.68-15.27-4.05-22.89-.45-6.97,3.29-13.75,6.98-20.66,10.39-6.25,3.08-12.78,5.4-19.74,6.21-6.64.77-13.24.6-19.79-.98-8.89-2.14-16.4-6.62-23.14-12.75-8.73-7.94-13.49-17.92-15.79-29.22-1.23-6.03-1.1-12.17-.5-18.29.99-10.19,4.79-19.56,8.33-29.03,1.97-5.25,3.52-10.66,5.11-16.05.47-1.6.8-3.39.58-5.02-.64-4.84-1.85-9.54-4.48-13.76-3.33-5.32-6.78-10.58-9.85-16.05-3.06-5.46-5.09-11.36-6.18-17.56-2.28-13.07-1.03-25.76,4.14-38.01,2.25-5.34,5.28-10.17,9.16-14.52,3.72-4.17,8.43-6.96,12.91-10.11,3.08-2.18,6.15-4.43,8.91-6.99,3.23-2.98,5.97-6.47,7.95-10.45,3.37-6.78,6.59-13.63,9.97-20.4,2.8-5.6,6.08-10.95,10.5-15.41,6.87-6.92,15.05-11.08,25.06-11.13,5.13-.03,10,1.28,14.94,2.34,7.38,1.58,14.85,1.85,22.3.76,4.16-.6,8.24-1.74,12.39-2.46,10.24-1.79,19.6.03,27.92,6.65,6.01,4.78,10.51,10.71,13.95,17.46,3.32,6.52,6.38,13.18,9.52,19.79,1.84,3.88,4.4,7.25,7.22,10.45,4.13,4.68,9.26,8.09,14.43,11.45,8.4,5.46,14.66,12.66,18.58,21.98,3.68,8.78,5.67,17.55,5.47,27.55ZM38.94,372.1c.1,11.19,2.49,20.98,8.75,29.69,4.36,6.07,9.68,10.97,16.39,14.2,10.55,5.08,21.62,5.79,32.95,3.26,5.48-1.22,10.59-3.46,15.55-6.05,5.3-2.76,10.54-5.64,15.88-8.33,9.94-4.99,19.93-5.11,29.87.04,4.95,2.57,9.87,5.2,14.83,7.74,7.31,3.74,14.86,6.71,23.12,7.71,8.78,1.07,17.2-.06,25.3-3.47,11.58-4.87,18.86-13.9,23.69-25.15,2.11-4.93,3.11-10.19,3.37-15.53.44-9-.85-17.75-4.19-26.18-2.83-7.15-5.54-14.35-8.27-21.53-1.81-4.78-2.92-9.67-2.39-14.84.58-5.7,2.83-10.77,5.83-15.54,2.03-3.22,4.28-6.31,6.41-9.47,6.57-9.81,9.81-20.77,9.84-32.73.01-5.23-.76-10.44-2.11-15.5-2.1-7.86-5.13-15.12-10.84-20.96-3.14-3.21-6.63-5.92-10.45-8.22-7.72-4.64-14.52-10.32-19-18.25-2.81-4.96-5.17-10.18-7.56-15.37-3.61-7.82-7.61-15.34-13.79-21.51-6.71-6.7-14.64-9.57-24.03-7.83-4.7.87-9.33,2.14-14.03,3.03-5.56,1.05-11.19,1.46-16.8.43-5.61-1.03-11.19-2.24-16.79-3.38-3.26-.66-6.54-.87-9.84-.46-6.97.87-12.35,4.94-16.89,10-2.27,2.53-4.23,5.33-5.9,8.3-2.83,5.02-5.31,10.25-7.73,15.5-3.44,7.47-7.34,14.58-13.2,20.49-3.79,3.82-8.09,6.94-12.65,9.7-7.94,4.8-14.23,11.94-17.63,20.57-2.25,5.73-3.82,11.59-4.51,17.73-1.2,10.79.37,21.14,5.33,30.76,2.91,5.63,6.66,10.83,10.06,16.2,5.41,8.54,7.69,17.68,4.76,27.57-1.54,5.19-3.72,10.18-5.59,15.26-1.45,3.96-2.96,7.9-4.28,11.9-2.23,6.77-3.45,13.73-3.45,20.21Z"/>
        <path class="cls-1" d="M38.94,372.1c0-6.48,1.22-13.44,3.45-20.21,1.32-4,2.83-7.94,4.28-11.9,1.87-5.09,4.06-10.08,5.59-15.26,2.93-9.89.65-19.03-4.76-27.57-3.41-5.37-7.16-10.57-10.06-16.2-4.96-9.61-6.53-19.97-5.33-30.76.68-6.14,2.25-12,4.51-17.73,3.4-8.64,9.69-15.77,17.63-20.57,4.56-2.76,8.85-5.88,12.65-9.7,5.87-5.91,9.76-13.02,13.2-20.49,2.42-5.24,4.9-10.47,7.73-15.5,1.67-2.96,3.63-5.76,5.9-8.3,4.54-5.06,9.92-9.14,16.89-10,3.31-.41,6.59-.2,9.84.46,5.59,1.14,11.17,2.35,16.79,3.38,5.61,1.02,11.24.62,16.8-.43,4.7-.89,9.33-2.16,14.03-3.03,9.39-1.74,17.32,1.13,24.03,7.83,6.18,6.17,10.19,13.69,13.79,21.51,2.39,5.18,4.75,10.4,7.56,15.37,4.49,7.93,11.28,13.61,19,18.25,3.82,2.3,7.31,5.01,10.45,8.22,5.71,5.84,8.74,13.1,10.84,20.96,1.35,5.06,2.13,10.27,2.11,15.5-.03,11.97-3.27,22.92-9.84,32.73-2.12,3.17-4.37,6.25-6.41,9.47-3,4.76-5.25,9.83-5.83,15.54-.53,5.18.58,10.07,2.39,14.84,2.73,7.19,5.44,14.39,8.27,21.53,3.34,8.43,4.63,17.18,4.19,26.18-.26,5.34-1.26,10.59-3.37,15.53-4.82,11.25-12.11,20.28-23.69,25.15-8.1,3.41-16.52,4.54-25.3,3.47-8.26-1.01-15.81-3.98-23.12-7.71-4.97-2.54-9.88-5.18-14.83-7.74-9.95-5.15-19.93-5.03-29.87-.04-5.34,2.68-10.58,5.56-15.88,8.33-4.96,2.59-10.07,4.82-15.55,6.05-11.33,2.53-22.39,1.82-32.95-3.26-6.71-3.23-12.03-8.13-16.39-14.2-6.26-8.71-8.65-18.5-8.75-29.69ZM203.31,404.68c2.44.08,4.83-.15,7.16-.69,13.07-3.01,21.73-15.4,21.04-28.79-.25-4.9-1.33-9.69-2.8-14.4-2.59-8.3-5.88-16.31-9.6-24.18-7.57-16-14.61-32.27-24.88-46.83-2.84-4.03-5.54-8.15-8.43-12.15-6-8.3-13.31-15.14-22.72-19.43-9.18-4.18-18.68-6.38-28.8-3.84-6.9,1.74-13.23,4.65-18.92,8.94-8.24,6.21-14.4,14.32-20.12,22.71-9.52,13.97-17.08,29.07-24.38,44.28-2.41,5.03-4.63,10.16-6.83,15.29-3.94,9.19-7.44,18.52-8.15,28.64-.34,4.81.04,9.52,1.9,13.99,4.26,10.27,13.72,16.1,25.02,16.33,10.15.21,19.63-2.47,28.16-8.21,4.15-2.8,8.31-5.61,12.66-8.08,13.45-7.65,26.95-7.61,40.3.31,4.16,2.46,8.3,4.98,12.28,7.7,8.13,5.55,17.03,8.44,27.12,8.4ZM93.91,193.1s0,.05,0,.08c.13,2.49.22,4.99.41,7.47.39,5.2,1.53,10.21,3.88,14.89.63,1.25,1.35,2.48,2.18,3.61,4.16,5.69,11.15,7.15,16.61,3.35,2.71-1.89,4.96-4.32,6.36-7.39.53-1.16,1.02-2.34,1.37-3.56,3.24-11.48,3.31-23.01.35-34.54-.99-3.84-2.4-7.5-5.14-10.52-1.46-1.61-2.98-3.13-5.06-3.92-4.46-1.68-8.47-.75-12.07,2.22-3.69,3.03-5.39,7.34-6.82,11.64-1.78,5.37-2.06,11.02-2.07,16.67ZM189.28,190.72c0-.06,0-.11,0-.17-.23-2.16-.49-6.37-1.18-10.52-.53-3.22-1.38-6.35-2.82-9.25-6.5-13.13-17.52-13.4-24-.26-.79,1.61-1.4,3.32-1.91,5.07-3.17,10.81-3.02,21.73-.65,32.65,1.07,4.92,2.99,9.47,6.77,13.04,4.15,3.93,10.58,4.11,14.9.35,2.66-2.31,4.35-5.29,5.62-8.51,2.55-6.52,3.14-13.36,3.28-22.4ZM73.96,252.86l-.54-.05c0-1.54.06-3.08-.01-4.62-.26-5.44-1.38-10.68-3.85-15.56-.05-.1-.1-.2-.15-.3-5.13-9.89-14.82-10.62-21.19-1.48-1.62,2.32-2.81,4.91-3.6,7.71-2.21,7.78-2.65,15.69-1.5,23.66.77,5.35,2.38,10.36,5.92,14.67,5,6.08,12.63,6.27,17.72.29,2.68-3.15,4.28-6.91,5.22-10.79,1.07-4.41,1.36-9.01,2-13.53ZM245.17,252.81c0-.1,0-.2,0-.3-.19-1.46-.39-3.34-.69-5.21-.41-2.6-.73-5.24-1.38-7.78-1.25-4.87-3.17-9.44-7.12-12.83-3.66-3.14-8.91-3.4-12.53-.54-2.14,1.69-4.04,3.69-5.13,6.23-1.02,2.37-2,4.8-2.62,7.29-1.88,7.47-2.1,15.08-1.03,22.68.78,5.51,2.18,10.82,6.24,15.05,3.01,3.13,6.45,4.74,10.78,3.66,3.84-.96,6.34-3.66,8.28-6.92,3.82-6.43,4.59-13.61,5.2-21.34Z"/>
        <path d="M203.31,404.68c-10.09.04-18.99-2.84-27.12-8.4-3.99-2.73-8.13-5.24-12.28-7.7-13.36-7.92-26.85-7.95-40.3-.31-4.35,2.47-8.51,5.29-12.66,8.08-8.53,5.75-18.01,8.42-28.16,8.21-11.3-.23-20.75-6.06-25.02-16.33-1.86-4.47-2.24-9.18-1.9-13.99.71-10.13,4.21-19.45,8.15-28.64,2.2-5.13,4.42-10.26,6.83-15.29,7.3-15.21,14.86-30.3,24.38-44.28,5.72-8.4,11.88-16.5,20.12-22.71,5.69-4.29,12.02-7.21,18.92-8.94,10.12-2.54,19.61-.35,28.8,3.84,9.41,4.28,16.71,11.13,22.72,19.43,2.89,3.99,5.59,8.12,8.43,12.15,10.27,14.56,17.31,30.83,24.88,46.83,3.72,7.87,7.01,15.88,9.6,24.18,1.47,4.71,2.54,9.5,2.8,14.4.69,13.39-7.97,25.78-21.04,28.79-2.33.54-4.72.77-7.16.69Z"/>
        <path class="cls-2" d="M93.91,193.19s0-.05,0-.08c.01-5.65.29-11.3,2.07-16.67,1.43-4.3,3.13-8.61,6.82-11.64,3.6-2.96,7.61-3.9,12.07-2.22,2.08.78,3.59,2.3,5.06,3.92,2.74,3.02,4.15,6.68,5.14,10.52,2.96,11.53,2.89,23.06-.35,34.54-.34,1.22-.84,2.41-1.37,3.56-1.4,3.07-3.65,5.5-6.36,7.39-5.46,3.8-12.45,2.33-16.61-3.35-.83-1.13-1.55-2.35-2.18-3.61-2.35-4.68-3.49-9.7-3.88-14.89-.19-2.49-.27-4.98-.41-7.47Z"/>
        <path class="cls-2" d="M189.27,190.54c0,.06,0,.11,0,.17-.14,9.04-.73,15.88-3.28,22.4-1.26,3.23-2.96,6.2-5.62,8.51-4.32,3.76-10.75,3.58-14.9-.35-3.77-3.57-5.7-8.11-6.77-13.04-2.37-10.92-2.52-21.83.65-32.65.51-1.75,1.12-3.46,1.91-5.07,6.48-13.14,17.5-12.87,24,.26,1.43,2.89,2.29,6.02,2.82,9.25.68,4.15.95,8.36,1.18,10.52Z"/>
        <path class="cls-2" d="M73.42,252.81c-.63,4.52-.39,9.17-1.46,13.58-.94,3.88-2.54,7.64-5.22,10.79-5.09,5.98-12.72,5.79-17.72-.29-3.54-4.3-5.16-9.31-5.92-14.67-1.14-7.98-.71-15.88,1.5-23.66.8-2.8,1.99-5.39,3.6-7.71,6.37-9.14,16.06-8.41,21.19,1.48.05.1.1.2.15.3,2.47,4.89,3.6,10.12,3.85,15.56.07,1.54.01,3.08.01,4.62.18.02-.18-.02,0,0Z"/>
        <path class="cls-2" d="M245.15,252.38c.02.19.03.38.01.57-.61,7.68-1.39,14.81-5.19,21.2-1.94,3.27-4.45,5.97-8.28,6.92-4.33,1.08-7.77-.54-10.78-3.66-4.07-4.23-5.46-9.54-6.24-15.05-1.08-7.6-.85-15.21,1.03-22.68.63-2.5,1.6-4.92,2.62-7.29,1.1-2.54,2.99-4.54,5.13-6.23,3.62-2.86,8.87-2.6,12.53.54,3.95,3.39,5.87,7.95,7.12,12.83.65,2.54.97,5.18,1.38,7.78.28,1.81.49,3.64.67,5.07Z"/>
      </g>
      <ellipse cx="58.23" cy="253.01" rx="15.73" ry="28.4"/>
      <ellipse cx="109.7" cy="193.18" rx="16.65" ry="31.38"/>
      <ellipse cx="173.12" cy="192.57" rx="16.65" ry="31.38"/>
      <ellipse cx="229.08" cy="252.79" rx="15.73" ry="28.4"/>
    </g>
    <g id="Layer_5">
      <g>
        <path d="M57.59,379.88c4.38-4.12,8.62-8.42,13.18-12.32,9.94-8.51,18.42-18.27,25.76-29.08,5.1-7.52,8.08-15.76,9.17-24.75.82-6.68,1.7-13.35,2.77-20,.31-1.94,1.04-3.98,2.13-5.59,3.55-5.24,6.25-10.86,8.75-16.66,1.79-4.14,4.09-8.08,6.43-11.96,2.22-3.69,4.75-7.2,7.2-10.75,1.22-1.77,2.54-2.13,4.56-1.43.39-.41.77-.85,1.19-1.24,1.67-1.57,3.8-1.36,4.81.71.58,1.2.67,2.65.91,4,.1.56.02,1.15.02,1.53.91-.09,2.14-.59,2.65-.18.86.68,1.66,1.89,1.79,2.96.24,2.01,0,4.08-.07,6.13-.01.34-.12.68-.18,1.03,2,.05,2.84.81,2.98,2.87.1,1.43.06,2.88-.04,4.31-.18,2.5-.45,5-.72,7.5-.12,1.07.25,1.45,1.35,1.65,1.83.33,3.6.96,5.48,1.49-.06-.4-.11-.77-.16-1.11.17-.08.25-.16.32-.15,2.9.45,5.97.45,8.67,1.44,9.49,3.46,15.8,10.31,19.1,19.76,1.47,4.22,2.51,8.63,3.34,13.03,1.63,8.61,5.35,16.23,10.87,22.89,3.92,4.73,8.3,9.09,12.65,13.45,5.72,5.73,10.83,11.84,14.6,19.09,2.83,5.43,2.4,10.8.51,16.26-2.39,6.89-7.53,11.13-14.15,13.48-3.82,1.36-7.88,2.17-11.9,2.78-3.65.55-7.15-.47-10.15-2.73-.87-.66-1.54-1.62-2.18-2.52-5.11-7.2-8.47-15.2-10.67-23.71-.13-.52-.34-1.02-.47-1.55-2.24-9.13-7.77-16.44-13.32-23.67-3.79-4.95-8.09-9.51-12.08-14.32-2.75-3.32-5.36-6.75-8.04-10.13-.3-.38-.6-.76-1.05-1.33-.13.47-.25.73-.27,1-.47,5.83-2.88,10.78-6.81,15.03-6.5,7.02-13.13,13.95-17.57,22.57-2.67,5.19-5.22,10.44-7.92,15.61-4.54,8.68-10.54,16.27-17.72,22.93-.98.91-2.16,1.6-3.26,2.37-1.36.95-2.86,1.2-4.49.96-3.23-.49-6.54-.69-9.7-1.45-7.43-1.78-12.6-6.46-15.84-13.29-.97-2.04-1.62-4.22-2.42-6.34,0-.18,0-.36,0-.54ZM143,290.92c-.72,1.3-.59,2.49-.31,3.65,1.16,4.89,4.04,8.64,8.17,11.29,3.04,1.95,5.32,4.39,6.76,7.64,1.48,3.35,3.25,6.51,5.6,9.33.05.06,0,.2,0,.54-.71-.65-1.4-1.06-1.8-1.67-1.53-2.36-3.21-4.67-4.4-7.21-2.06-4.4-5.11-7.47-9.95-8.44-1.25-.25-2.6-.04-4.17-.04.41.64.62.92.79,1.23.54.95.16,2.28-.87,3.09-.9.7-1.41-.12-1.94-.58-.62-.55-1.12-1.22-1.87-2.06-.15.63-.31.91-.25,1.12.51,1.7.73,3.61,1.67,5.05,2.47,3.8,5.11,7.51,7.93,11.06,7.7,9.72,15.53,19.33,23.28,29.01,2.83,3.53,5.13,7.38,6.44,11.75,1.13,3.74,2.15,7.52,3.33,11.24,2.14,6.75,5.24,13,9.92,18.37,1.99,2.29,4.56,3.49,7.58,3.55,6.19.13,11.94-1.28,17.4-4.38,9.67-5.49,12.78-17.35,8.63-26.5-2.18-4.8-5-9.14-8.64-12.94-4.14-4.31-8.32-8.58-12.51-12.85-6.44-6.55-11.2-14.16-14.06-22.88-1.12-3.4-1.67-6.98-2.62-10.45-1.42-5.16-3.03-10.29-5.74-14.93-3.89-6.66-10.03-10.47-17.12-13.02-1.38-.49-2.21-.11-2.9,1.09,1.12,1.22,2.3,2.39,3.34,3.67,1.05,1.29,2,2.66,2.91,4.04.88,1.34,1.65,2.74,2.47,4.11-1.87-1.96-3.46-4.07-5.11-6.12-3.33-4.14-7.52-6.89-12.81-7.86-.69-.13-1.08-.05-1.52.63-.78,1.21-1.66,2.5-3.49,1.98-.97,1.46-.83,3.02-.49,4.57.06.28.63.62.97.63,5.04.22,9.41,2.14,13.32,5.22,4.22,3.33,7.66,7.35,10.27,12.02,2.01,3.59,3.79,7.3,5.67,10.96-.43-.16-.67-.43-.85-.73-1.61-2.75-3.25-5.48-4.81-8.27-4.58-8.19-10.92-14.32-20.03-17.23-1.21-.38-2.47-.6-3.91-.94.57,1.44-.07,2.11-.86,2.68-1.2.87-2.37.98-3.42-.49ZM129.19,271.99c.13-.19.28-.35.36-.55,2.08-4.76,4.34-9.46,6.16-14.31.86-2.29.94-4.89,1.24-7.37.06-.48-.39-1.26-.82-1.49-.3-.16-1.11.28-1.45.66-1.04,1.17-2.01,2.41-2.91,3.68-5.43,7.73-10.32,15.73-13.73,24.63-1.38,3.59-3.84,6.77-5.77,10.15-.66,1.15-1.35,2.32-1.78,3.57-.53,1.56-.92,3.2-1.16,4.83-.95,6.47-1.82,12.96-2.72,19.44-.92,6.63-2.63,13.02-6.09,18.81-7.91,13.27-17.61,25.02-29.46,34.98-3.89,3.27-7.53,6.81-10.57,10.93-.68.92-.83,1.72-.49,2.83,3.66,11.96,15.46,17.85,26.56,16.22,1.13-.17,2.34-.41,3.3-.98,1.53-.91,2.98-2.03,4.29-3.24,7.78-7.18,14.06-15.49,18.44-25.15,4.97-10.96,11.17-21.08,19.63-29.76,4.68-4.8,8.17-10.32,9.29-17.12.41-2.48.37-4.64-1.14-6.89-1.16-1.72-1.79-3.88-2.31-5.94-.41-1.64,1.18-3.36-.38-5.23.79,0,1.14-.1,1.38.02,1.76.88,3.41.13,5.11-.22,1.19-.24,1.38-1.13,1.02-1.9-1.13-2.4-2.44-4.72-3.7-7.1-.33,1.02-.67,2.04-1,3.06-.15-.04-.3-.08-.45-.11.25-1.39.51-2.77.75-4.16.39-2.26,1.82-4.44.48-6.82-.09-.17-.01-.43-.01-.65.12.04.25.08.37.12.24-.53.61-1.04.69-1.59.19-1.33.11-2.69.35-4,1.2-6.51,2.22-13.07,4.69-19.28.88-2.21,1.01-4.57.39-6.88-.12-.45-.41-.85-.73-1.25-.37-.46-1.05-.49-1.48-.08-.34.33-.65.67-.81,1.07-.81,2.08-1.37,4.26-2.1,6.37-2.72,7.89-5.25,15.82-6.23,24.16-.05.41-.05.93.15,1.26,1.41,2.35,1.53,4.86.92,7.41-.42,1.77-1.07,3.49-1.55,5.05,1.67.65,3.32,1.29,4.98,1.93l-.15.5c-.4-.06-.81-.1-1.21-.18-1.05-.21-2.1-.43-3.14-.68-.75-.18-1.52.19-1.85.89-1.57,3.36-3.24,6.69-4.78,10.07-.31.67-.37,1.42-.21,2.14,1.06,4.62,1.74,9.27,1.04,14.01-.28,1.88-.66,3.75-2.19,5.27-.05-.26-.11-.36-.08-.43,2.07-6.51,1.78-12.98-.27-19.43-.09-.3-.02-.72.12-1.01,1.76-3.68,3.6-7.32,5.31-11.02,1.03-2.23,2-4.51,2.76-6.84.72-2.21.72-4.49-.58-6.89-.8,1.7-1.47,3.2-2.19,4.67-1.71,3.48-2.69,3.8-6.2,2.07-.04-.02-.08-.04-.12-.07-.85-.65-1.45-.43-2.12.39-2.69,3.28-5.14,6.68-6.68,10.69-.98,2.55-2.55,4.76-4.66,6.55,3.62-5.89,5.36-12.84,10.48-17.86l-.15-.54-4.62-1.05c1.68-1.04,3.23-.52,4.75-.12.12-.26.22-.41.27-.58,1.17-4.27,2.24-8.57,3.55-12.8.7-2.27,1.08-4.41-.03-6.62-.09-.18-.08-.4-.16-.79.57.23.95.38,1.38.55ZM126.51,289.28c.13.04.25.09.38.13.66-.84,1.35-1.65,1.97-2.51,1.18-1.65,2.71-2.3,4.68-1.73.74.21,1.11-.04,1.25-.76.09-.44.19-.88.3-1.31,1.33-5.24,2.6-10.5,4-15.72,1.24-4.62,2.68-9.19,3.92-13.81.51-1.91.66-3.91-.2-5.81-.55-1.21-1.49-1.72-2.44-1.39-.96.34-2.2,1.96-2.18,3.03.09,5.01-1.71,9.57-3.33,14.17-2.15,6.08-4.41,12.11-6.47,18.21-.82,2.43-1.26,4.99-1.87,7.5ZM150.09,263.52c-.21,0-.42-.01-.63-.02-.3.37-.71.7-.87,1.13-1.07,2.89-2.33,5.74-3.05,8.72-.93,3.86-1.4,7.83-2.08,11.74-.34,1.95.17,2.52,1.9,2.5,0-1.24-.33-2.59.07-3.67.71-1.92,1.11-3.75.48-5.73-.01-.05.1-.13.2-.26,1.01.14,2.06.28,3.34.45.11-1.4.17-2.68.31-3.95.27-2.45.68-4.89.83-7.34.07-1.17-.31-2.37-.49-3.56ZM132.31,285.72c-.79.46-1.69.79-2.35,1.4-.78.72-1.45,1.61-2,2.52-1.9,3.12-1.97,2.81,1.5,4.26,1.09.46,1.81.15,2.3-.88.75-1.58,1.52-3.15,2.25-4.74.86-1.86.52-2.36-1.7-2.56ZM138.89,305.16c-.11.12-.22.25-.33.37.9,1.08,1.76,2.19,2.71,3.2.23.24.94.37,1.18.2.59-.42.69-1.12.02-1.58-1.16-.79-2.39-1.47-3.59-2.2ZM146.41,289.89c-1.26-1.02-2.38-1.9-4.34-2.03,1.08,1.34,1.9,2.36,2.79,3.47.58-.54,1-.92,1.55-1.44ZM148.16,281.41c.57-.51,1.01-.91,1.66-1.5-1.19-.58-2.16-1.06-3.13-1.54-.07.1-.14.21-.21.31.53.86,1.05,1.72,1.67,2.72ZM158.44,279.61c.73.66,1.3,1.18,1.93,1.74.67-1.33.49-1.49-1.93-1.74Z"/>
        <path class="cls-1" d="M143,290.92c1.05,1.47,2.21,1.35,3.42.49.79-.57,1.44-1.24.86-2.68,1.45.34,2.71.55,3.91.94,9.11,2.9,15.45,9.04,20.03,17.23,1.55,2.78,3.2,5.52,4.81,8.27.18.3.42.57.85.73-1.88-3.66-3.66-7.37-5.67-10.96-2.61-4.68-6.05-8.7-10.27-12.02-3.91-3.09-8.28-5-13.32-5.22-.35-.02-.91-.35-.97-.63-.34-1.55-.48-3.11.49-4.57,1.83.52,2.71-.77,3.49-1.98.44-.68.83-.76,1.52-.63,5.29.97,9.48,3.72,12.81,7.86,1.66,2.06,3.25,4.17,5.11,6.12-.82-1.37-1.59-2.78-2.47-4.11-.91-1.39-1.87-2.76-2.91-4.04-1.04-1.28-2.22-2.45-3.34-3.67.69-1.21,1.52-1.58,2.9-1.09,7.09,2.55,13.23,6.36,17.12,13.02,2.71,4.64,4.32,9.77,5.74,14.93.95,3.46,1.5,7.04,2.62,10.45,2.86,8.72,7.62,16.33,14.06,22.88,4.19,4.26,8.38,8.53,12.51,12.85,3.64,3.8,6.46,8.13,8.64,12.94,4.15,9.15,1.04,21.01-8.63,26.5-5.46,3.1-11.21,4.51-17.4,4.38-3.02-.07-5.59-1.27-7.58-3.55-4.68-5.38-7.78-11.63-9.92-18.37-1.18-3.72-2.2-7.5-3.33-11.24-1.31-4.37-3.61-8.22-6.44-11.75-7.75-9.68-15.59-19.29-23.28-29.01-2.81-3.55-5.46-7.26-7.93-11.06-.93-1.44-1.16-3.35-1.67-5.05-.06-.21.1-.48.25-1.12.75.84,1.25,1.52,1.87,2.06.52.46,1.03,1.28,1.94.58,1.04-.81,1.42-2.14.87-3.09-.17-.3-.38-.59-.79-1.23,1.58,0,2.92-.21,4.17.04,4.84.97,7.89,4.04,9.95,8.44,1.19,2.53,2.86,4.85,4.4,7.21.4.61,1.09,1.03,1.8,1.67,0-.34.04-.48,0-.54-2.35-2.82-4.12-5.99-5.6-9.33-1.44-3.25-3.72-5.7-6.76-7.64-4.13-2.65-7.02-6.4-8.17-11.29-.27-1.16-.41-2.35.31-3.65Z"/>
        <path class="cls-1" d="M129.19,271.99c-.43-.17-.82-.33-1.38-.55.08.4.07.62.16.79,1.11,2.21.72,4.35.03,6.62-1.3,4.23-2.37,8.53-3.55,12.8-.05.17-.15.32-.27.58-1.52-.39-3.07-.91-4.75.12l3.69.84.44,1.4c-4.64,4.96-6.38,11.57-9.84,17.21,2.11-1.79,3.67-4,4.66-6.55,1.54-4.01,3.99-7.41,6.68-10.69.68-.82,1.27-1.04,2.12-.39.04.03.08.05.12.07,3.51,1.73,4.49,1.41,6.2-2.07.57-1.16,1.11-2.34,1.7-3.62.2-.43.82-.41.99.03.78,2.01.69,3.93.08,5.81-.76,2.33-1.73,4.61-2.76,6.84-1.71,3.7-3.55,7.34-5.31,11.02-.14.29-.21.71-.12,1.01,2.05,6.45,2.33,12.93.27,19.43-.02.07.03.17.08.43,1.53-1.52,1.91-3.39,2.19-5.27.69-4.68.03-9.27-1-13.83-.19-.83-.11-1.71.24-2.48,1.46-3.19,3.03-6.33,4.52-9.51.43-.91,1.43-1.42,2.41-1.19.92.21,1.84.4,2.76.59.4.08.81.12,1.21.18l.15-.5-4.51-1.74c-.26-.1-.41-.39-.32-.66.46-1.43,1.02-2.98,1.4-4.58.61-2.56.49-5.07-.92-7.41-.2-.33-.19-.84-.15-1.26.98-8.33,3.51-16.27,6.23-24.16.73-2.12,1.29-4.29,2.1-6.37.21-.55.72-.98,1.19-1.43.23-.21.59-.19.78.05.42.52.88,1.04,1.04,1.63.63,2.3.49,4.67-.39,6.88-2.47,6.21-3.49,12.77-4.69,19.28-.24,1.31-.17,2.68-.35,4-.08.55-.45,1.06-.69,1.59-.12-.04-.25-.08-.37-.12,0,.22-.08.49.01.65,1.34,2.39-.09,4.57-.48,6.82-.24,1.39-.5,2.77-.75,4.16.15.04.3.08.45.11l.61-1.87c.15-.45.75-.5.98-.08,1.07,2,2.16,3.97,3.11,6,.36.77.17,1.66-1.02,1.9-1.7.34-3.35,1.1-5.11.22-.24-.12-.59-.02-1.38-.02,1.57,1.87-.03,3.59.38,5.23.52,2.05,1.15,4.21,2.31,5.94,1.51,2.24,1.55,4.41,1.14,6.89-1.12,6.8-4.61,12.32-9.29,17.12-8.46,8.68-14.66,18.79-19.63,29.76-4.38,9.67-10.66,17.97-18.44,25.15-1.31,1.21-2.76,2.33-4.29,3.24-.96.57-2.17.81-3.3.98-11.1,1.63-22.9-4.26-26.56-16.22-.34-1.11-.19-1.91.49-2.83,3.04-4.12,6.68-7.66,10.57-10.93,11.86-9.95,21.56-21.71,29.46-34.98,3.45-5.8,5.17-12.18,6.09-18.81.9-6.48,1.77-12.97,2.72-19.44.24-1.63.63-3.27,1.16-4.83.42-1.25,1.12-2.42,1.78-3.57,1.93-3.38,4.39-6.56,5.77-10.15,3.41-8.9,8.3-16.9,13.73-24.63.9-1.28,1.87-2.51,2.91-3.68.34-.38,1.15-.82,1.45-.66.43.23.88,1,.82,1.49-.3,2.48-.38,5.08-1.24,7.37-1.82,4.86-4.07,9.55-6.16,14.31-.09.2-.24.36-.36.55ZM122.87,300.57c1.11,2.02,1.82,2.33,3.69,1.68-1.41-.64-2.55-1.16-3.69-1.68Z"/>
        <path class="cls-1" d="M126.51,289.28c.61-2.5,1.05-5.07,1.87-7.5,2.07-6.1,4.33-12.14,6.47-18.21,1.62-4.6,3.42-9.16,3.33-14.17-.02-1.07,1.22-2.69,2.18-3.03.95-.33,1.89.17,2.44,1.39.86,1.9.71,3.9.2,5.81-1.24,4.62-2.68,9.19-3.92,13.81-1.4,5.22-2.68,10.48-4,15.72-.11.43-.21.87-.3,1.31-.14.71-.51.97-1.25.76-1.97-.57-3.5.08-4.68,1.73-.62.87-1.31,1.68-1.97,2.51-.13-.04-.25-.09-.38-.13Z"/>
        <path class="cls-1" d="M150.09,263.52c.57,1.96.56,2.39.49,3.56-.15,2.45-.56,4.89-.83,7.34-.14,1.27-.21,2.55-.31,3.95-1.27-.17-2.32-.31-3.34-.45-.1.13-.21.22-.2.26.63,1.98.23,3.81-.48,5.73-.4,1.08-.07,2.43-.07,3.67-1.73.02-2.24-.55-1.9-2.5.68-3.92,1.15-7.89,2.08-11.74.72-2.98,1.98-5.83,3.05-8.72.16-.43.57-.76.87-1.13.16-.11.41-.13.63.02Z"/>
        <path class="cls-1" d="M132.19,285.79c.08-.05.18-.07.28-.06,2.09.21,2.39.73,1.55,2.55-.74,1.59-1.5,3.16-2.25,4.74-.49,1.03-1.21,1.34-2.3.88-3.47-1.46-3.4-1.14-1.5-4.26.55-.91,1.22-1.8,2-2.52.62-.57,1.46-.91,2.22-1.33Z"/>
        <path class="cls-1" d="M139.01,305.39c1.2.73,2.31,1.19,3.47,1.98.67.45.57,1.15-.02,1.58-.24.17-.95.04-1.18-.2-.96-1.02-1.6-1.94-2.49-3.02-.07-.24-.01-.37.22-.33Z"/>
        <path class="cls-1" d="M146.17,290.11l-.99.92c-.22.2-.41.19-.51.06l-2.15-2.67c-.17-.21.02-.51.28-.47,1.41.26,2.36.94,3.35,1.73.14.11.15.31.02.43Z"/>
        <path class="cls-1" d="M148.08,281.35l-1.33-2.17c-.18-.29.14-.64.44-.49l2.46,1.21c.09.04.1.16.03.22l-1.39,1.26c-.06.06-.16.04-.21-.03Z"/>
        <path class="cls-1" d="M158.44,279.61c2.42.26,2.6.41,1.93,1.74-.62-.56-1.2-1.08-1.93-1.74Z"/>
        <path d="M122.87,300.57c1.14.52,2.28,1.03,3.69,1.68-1.87.65-2.58.34-3.69-1.68Z"/>
      </g>
    </g>
  </g>
</svg>